<?xml version="1.0" encoding="UTF-8"?>
<svg version="1.1" xmlns="http://www.w3.org/2000/svg" width="428" height="511">
<path d="M0 0 C141.24 0 282.48 0 428 0 C428 168.63 428 337.26 428 511 C286.76 511 145.52 511 0 511 C0 342.37 0 173.74 0 0 Z " fill="#FEFEFE" transform="translate(0,0)"/>
<path d="M0 0 C16.83 0 33.66 0 51 0 C51 16.83 51 33.66 51 51 C34.17 51 17.34 51 0 51 C0 34.17 0 17.34 0 0 Z " fill="#077DCE" transform="translate(256,81)"/>
<path d="M0 0 C5.40330412 3.5682197 8.96899603 7.85535239 11 14 C12.0649682 21.91855389 12.10418451 29.33915878 7.546875 36.13671875 C2.43314714 42.2964364 -3.1425553 46.14048366 -11.15625 47.31640625 C-18.49674947 47.7170321 -24.79992001 45.08700869 -30.875 41.125 C-36.5136898 35.4863102 -39.28006022 29.61497148 -39.375 21.6875 C-39.22287746 13.75028279 -37.0973592 9.10200534 -31.875 3.25 C-22.17700433 -5.82499809 -11.26167818 -5.75386583 0 0 Z " fill="#F3733B" transform="translate(243,366)"/>
<path d="M0 0 C5.39098469 3.18558186 8.76330595 8.23051435 11 14 C12.41695948 23.29006534 11.47512186 31.26341477 6 39 C4.41631046 40.97961192 2.9871676 42.38878303 1 44 C0.34 44 -0.32 44 -1 44 C-2.62627512 41.59081548 -4.13938521 39.18167936 -5.625 36.6875 C-9.3382255 30.58317718 -13.21228161 24.75547198 -17.50390625 19.0390625 C-19 17 -19 17 -20 15 C-20.99 14.67 -21.98 14.34 -23 14 C-23 20.27 -23 26.54 -23 33 C-22.34 33 -21.68 33 -21 33 C-21 28.38 -21 23.76 -21 19 C-18.28287882 21.71712118 -16.23249123 23.87986406 -14.08984375 26.93359375 C-13.57486328 27.66513672 -13.05988281 28.39667969 -12.52929688 29.15039062 C-12.00400391 29.90513672 -11.47871094 30.65988281 -10.9375 31.4375 C-10.14375977 32.56381836 -10.14375977 32.56381836 -9.33398438 33.71289062 C-6.74841395 37.40146474 -4.24609215 41.09071159 -2 45 C-8.21763862 48.39143924 -13.98650461 48.93811085 -21 48 C-29.51706339 45.31228715 -34.32938183 40.36200967 -38.875 32.9375 C-41.2187261 26.73434469 -41.04845867 18.89427508 -39.34375 12.5625 C-35.9855667 5.15133686 -29.91212903 -0.39192491 -22.3828125 -3.33984375 C-14.24685544 -5.59390398 -7.36315199 -3.76719404 0 0 Z " fill="#060606" transform="translate(140,91)"/>
<path d="M0 0 C14.85 0 29.7 0 45 0 C43.90771628 15.36999233 42.75272497 30.69162557 41 46 C23.30928569 52.05262097 23.30928569 52.05262097 17.28930664 49.81884766 C14.63752756 48.87034952 11.96208121 48.13587872 9.2421875 47.40625 C8.25847168 47.14134766 7.27475586 46.87644531 6.26123047 46.60351562 C5.51502441 46.40435547 4.76881836 46.20519531 4 46 C3.42722499 40.2528273 2.85765078 34.50534967 2.29101562 28.75756836 C2.09788121 26.80305452 1.90387873 24.84862624 1.70898438 22.89428711 C1.42869422 20.08209021 1.1515467 17.26959844 0.875 14.45703125 C0.78750488 13.58601273 0.70000977 12.7149942 0.60986328 11.81758118 C0.52978027 10.997108 0.44969727 10.17663483 0.3671875 9.33129883 C0.29612793 8.61404129 0.22506836 7.89678375 0.15185547 7.15779114 C-0.01567882 4.77721174 0 2.38646726 0 0 Z " fill="#E5542D" transform="translate(337,326)"/>
<path d="M0 0 C3.5625 0.875 3.5625 0.875 5.6875 2.5625 C6.30625 2.995625 6.925 3.42875 7.5625 3.875 C10.73336167 3.02428101 12.818914 1.70405734 15.5625 -0.125 C19.125 0.0625 19.125 0.0625 22.5625 0.875 C24.77164 4.18871 24.78731553 5.2196021 24.6875 9.0625 C24.66945312 9.96355469 24.65140625 10.86460937 24.6328125 11.79296875 C24.60960937 12.48003906 24.58640625 13.16710937 24.5625 13.875 C25.11679688 14.12894531 25.67109375 14.38289062 26.2421875 14.64453125 C26.96664062 14.98871094 27.69109375 15.33289063 28.4375 15.6875 C29.15679687 16.02394531 29.87609375 16.36039063 30.6171875 16.70703125 C32.5625 17.875 32.5625 17.875 34.5625 20.875 C34.47195259 24.4063491 33.83030609 25.60719391 31.3125 28.125 C28.59900929 29.85176682 26.72720757 30.51331913 23.5625 30.875 C24.0575 31.865 24.0575 31.865 24.5625 32.875 C25.01391066 39.8718652 25.01391066 39.8718652 23.4375 43.375 C21.5625 44.875 21.5625 44.875 18.75 45.375 C14.86715743 44.76592666 12.66026684 43.2352033 9.5625 40.875 C7.06888429 42.07881448 4.88106917 43.32928722 2.5625 44.875 C-1 45.125 -1 45.125 -4.4375 44.875 C-6.4375 42.875 -6.4375 42.875 -6.6328125 40.0546875 C-6.60960937 38.96414062 -6.58640625 37.87359375 -6.5625 36.75 C-6.54445312 35.65429688 -6.52640625 34.55859375 -6.5078125 33.4296875 C-6.48460937 32.58664063 -6.46140625 31.74359375 -6.4375 30.875 C-7.345 30.6275 -8.2525 30.38 -9.1875 30.125 C-12.61991801 28.80483923 -14.25578523 27.81192372 -16.4375 24.875 C-17.0625 22.4375 -17.0625 22.4375 -16.4375 19.875 C-13.52633306 17.02852566 -11.31222029 15.16657343 -7.4375 13.875 C-7.40011719 13.11574219 -7.36273438 12.35648438 -7.32421875 11.57421875 C-7.25847656 10.58035156 -7.19273437 9.58648437 -7.125 8.5625 C-7.06699219 7.57636719 -7.00898438 6.59023437 -6.94921875 5.57421875 C-6.4375 2.875 -6.4375 2.875 -5.109375 1.01171875 C-3.4375 -0.125 -3.4375 -0.125 0 0 Z " fill="#70DEFA" transform="translate(199.4375,174.125)"/>
<path d="M0 0 C5.60273331 0.40019524 7.68356948 1.9620397 13 5 C13 15.56 13 26.12 13 37 C3.30653805 41.84673098 3.30653805 41.84673098 0 41 C-2.41100393 39.25978413 -4.46935525 37.23018816 -6.5625 35.125 C-11.23641865 30.30128491 -11.23641865 30.30128491 -17 27 C-18.3303125 28.0209375 -18.3303125 28.0209375 -19.6875 29.0625 C-23 31 -23 31 -25.875 30.75 C-26.57625 30.5025 -27.2775 30.255 -28 30 C-27.49701212 25.59885603 -25.91227269 23.28804981 -23 20 C-24.65 18.68 -26.3 17.36 -28 16 C-27.67 14.35 -27.34 12.7 -27 11 C-25.3125 10.25 -25.3125 10.25 -23 10 C-20.5 12 -20.5 12 -18 14 C-14.80951368 13.66235712 -13.08952166 12.48539543 -10.80078125 10.3125 C-10.23166016 9.77882813 -9.66253906 9.24515625 -9.07617188 8.6953125 C-8.2031543 7.85613281 -8.2031543 7.85613281 -7.3125 7 C-6.71888672 6.44054687 -6.12527344 5.88109375 -5.51367188 5.3046875 C-2.73137616 2.67869655 -2.73137616 2.67869655 0 0 Z " fill="#0787CF" transform="translate(315,435)"/>
<path d="M0 0 C5.9883473 3.34699029 11.23762036 8.51455489 13.75 15 C14.81052528 23.86375864 14.28086357 31.75403691 8.75 39 C4.57802835 43.11309302 1.56232295 44.83753541 -4.25 46 C-4.745 39.565 -4.745 39.565 -5.25 33 C-4.156875 32.62875 -3.06375 32.2575 -1.9375 31.875 C1.01020347 30.59546949 1.76539649 29.97882983 3.75 27.25 C4.95473624 23.33460722 4.5896041 20.98811946 3.75 17 C2.75 10.22222222 2.75 10.22222222 2.75 8 C2.09 8.32613281 1.43 8.65226563 0.75 8.98828125 C-2.96056481 10.23963058 -6.38524717 10.25524013 -10.25 10.1875 C-10.94867188 10.18685547 -11.64734375 10.18621094 -12.3671875 10.18554688 C-16.11244 10.15374756 -19.60894067 9.8889305 -23.25 9 C-23.229375 9.94875 -23.20875 10.8975 -23.1875 11.875 C-23.25 15 -23.25 15 -24.25 17 C-24.88619673 22.13501648 -25.13043099 25.8016356 -22 30.0625 C-19.59122652 31.75959041 -18.13895266 32.67900526 -15.25 33 C-15.58 34.32 -15.91 35.64 -16.25 37 C-19.85296594 37.41176754 -21.03402067 37.1535853 -24.0625 35 C-24.784375 34.34 -25.50625 33.68 -26.25 33 C-25.92 33.61875 -25.59 34.2375 -25.25 34.875 C-24.25 37 -24.25 37 -24.25 39 C-21.61 39.33 -18.97 39.66 -16.25 40 C-16.25 41.98 -16.25 43.96 -16.25 46 C-21.64711005 45.66268062 -25.4299928 42.57174677 -29.25 39 C-33.43470203 33.52675336 -35.75549668 27.05316193 -35.5703125 20.1484375 C-34.67356315 14.13365529 -31.51705844 8.26705844 -27.25 4 C-18.72477348 -2.08697715 -9.99374959 -4.56070042 0 0 Z " fill="#211F1F" transform="translate(224.25,4)"/>
<path d="M0 0 C3.57769695 1.74049139 6.93477254 3.77712418 10.3125 5.875 C11.21806641 6.41769531 12.12363281 6.96039063 13.05664062 7.51953125 C19.72464129 11.58696193 19.72464129 11.58696193 22 15 C22.47067962 19.46433691 22.37035324 23.95105041 22.375 28.4375 C22.39949219 29.67822266 22.42398438 30.91894531 22.44921875 32.19726562 C22.45501953 33.98487305 22.45501953 33.98487305 22.4609375 35.80859375 C22.46915527 36.89970459 22.47737305 37.99081543 22.48583984 39.11499023 C21.74059143 43.54041763 19.31872756 45.05576759 15.80517578 47.5715332 C13.25558315 49.1697105 10.69590371 50.74881181 8.125 52.3125 C7.23941406 52.87517578 6.35382813 53.43785156 5.44140625 54.01757812 C-1.10679884 58.00407854 -1.10679884 58.00407854 -5.421875 57.984375 C-8.64238591 56.75472538 -11.23365311 55.04182747 -14 53 C-13.67 52.34 -13.34 51.68 -13 51 C-7.27355173 51.91102586 -7.27355173 51.91102586 -5.01538086 52.64550781 C-1.38646203 53.28381068 1.486714 50.64796402 4.4375 48.75 C5.09298828 48.34136719 5.74847656 47.93273437 6.42382812 47.51171875 C7.65910153 46.74106673 8.89120633 45.96529324 10.11889648 45.18261719 C12 44 12 44 14.68261719 42.73022461 C17.26144421 41.18872868 17.26144421 41.18872868 17.65942383 38.27270508 C17.6829895 36.66238403 17.6829895 36.66238403 17.70703125 35.01953125 C17.73603516 33.85615234 17.76503906 32.69277344 17.79492188 31.49414062 C17.80072266 30.27919922 17.80652344 29.06425781 17.8125 27.8125 C17.83763672 26.58595703 17.86277344 25.35941406 17.88867188 24.09570312 C17.94766454 21.0634802 17.98385681 18.03270491 18 15 C17.08613525 14.71535889 16.17227051 14.43071777 15.23071289 14.13745117 C12.58622224 13.20639382 10.61779127 12.32455535 8.30859375 10.80078125 C7.35629883 10.19459961 7.35629883 10.19459961 6.38476562 9.57617188 C5.07847261 8.72845715 3.77641008 7.87419014 2.47851562 7.01367188 C-0.15979146 5.34694888 -2.25594731 4.02640187 -5.421875 3.9140625 C-9.40438236 5.59154287 -13.01441236 7.79758506 -16.6875 10.0625 C-18.20987937 10.99475069 -19.73451448 11.92333087 -21.26171875 12.84765625 C-21.93162842 13.26023682 -22.60153809 13.67281738 -23.29174805 14.09790039 C-25 15 -25 15 -27 15 C-26.97725987 19.2720236 -26.90003274 23.54135129 -26.8125 27.8125 C-26.80669922 29.02744141 -26.80089844 30.24238281 -26.79492188 31.49414062 C-26.75141602 33.23920898 -26.75141602 33.23920898 -26.70703125 35.01953125 C-26.6913208 36.09307861 -26.67561035 37.16662598 -26.65942383 38.27270508 C-26.24400659 41.17135865 -26.24400659 41.17135865 -23.76831055 42.8737793 C-20.72620485 44.31402913 -20.72620485 44.31402913 -16 44 C-15.67 35.09 -15.34 26.18 -15 17 C-13.68 17 -12.36 17 -11 17 C-10.91296 21.58321382 -10.85959368 26.16621534 -10.8125 30.75 C-10.78736328 32.05195313 -10.76222656 33.35390625 -10.73632812 34.6953125 C-10.72666016 35.94570312 -10.71699219 37.19609375 -10.70703125 38.484375 C-10.6913208 39.63647461 -10.67561035 40.78857422 -10.65942383 41.97558594 C-11.03593382 45.31910262 -11.56848754 46.69890157 -14 49 C-20.36590408 49.84878721 -23.77221769 48.62744079 -29 45 C-32.91818489 37.16363022 -31.54731028 21.59245557 -30 13 C-27.29594676 7.92459117 -22.20722167 6.66469808 -17 5 C-15.17950357 3.85718837 -13.38412792 2.67269013 -11.625 1.4375 C-7.42917745 -1.41654891 -4.89846614 -1.29533907 0 0 Z " fill="#5EA44F" transform="translate(104,198)"/>
<path d="M0 0 C6.81471297 6.23059471 11.44180675 13.4180675 12.375 22.75 C12.1966946 28.55606963 10.2129685 34.23530511 6.57421875 38.78125 C4.3492388 40.85099879 2.52457453 41.93442818 -0.5 42.3125 C-5.24976961 39.81887096 -8.32903871 35.01288387 -10 30 C-10.80872625 18.82366844 -10.00754597 11.66778003 -2.75 3 C-1.84151012 1.99256568 -0.92781291 0.98966711 0 0 Z " fill="#52AB45" transform="translate(73,324)"/>
<path d="M0 0 C0.67806317 3.1851837 1.34035151 6.37345613 2 9.5625 C2.19078125 10.45775391 2.3815625 11.35300781 2.578125 12.27539062 C3.60729907 17.29261421 4.22479032 21.87899545 4 27 C1.78045349 28.37257477 -0.44835409 29.72259151 -2.6875 31.0625 C-3.62625977 31.64741211 -3.62625977 31.64741211 -4.58398438 32.24414062 C-7.30461596 33.85372895 -9.35910873 35.00781575 -12.5625 34.96875 C-15.67839716 33.73038062 -18.44300069 32.17181277 -21.3125 30.4375 C-22.91544922 29.47650391 -22.91544922 29.47650391 -24.55078125 28.49609375 C-25.35902344 28.00238281 -26.16726563 27.50867188 -27 27 C-25.41588094 23.1173105 -22.77134362 20.48135635 -19.84375 17.578125 C-19.34081421 17.07327576 -18.83787842 16.56842651 -18.31970215 16.04827881 C-17.25970014 14.98692003 -16.19718512 13.92806581 -15.13232422 12.87158203 C-13.49859954 11.24860876 -11.87586706 9.61518932 -10.25390625 7.98046875 C-9.22199524 6.94987854 -8.18946441 5.91990848 -7.15625 4.890625 C-6.66974976 4.40007629 -6.18324951 3.90952759 -5.68200684 3.40411377 C-2.22994349 0 -2.22994349 0 0 0 Z " fill="#F58626" transform="translate(293,257)"/>
<path d="M0 0 C2.13586678 3.20380017 2.23132175 4.01939967 2.125 7.6875 C2.10695312 8.49574219 2.08890625 9.30398437 2.0703125 10.13671875 C2.04710937 10.75160156 2.02390625 11.36648437 2 12 C1.34 11.34 0.68 10.68 0 10 C-0.99 12.64 -1.98 15.28 -3 18 C-3.99 18 -4.98 18 -6 18 C-5.7525 18.680625 -5.505 19.36125 -5.25 20.0625 C-4.8826336 24.3790552 -6.67348716 26.40448015 -9 30 C-12.3 30 -15.6 30 -19 30 C-22.34428125 24.45553371 -22.34428125 24.45553371 -23 21 C-21.8218024 18.21360569 -20.35499498 16.19191773 -18.453125 13.84765625 C-16.79393719 12.12975972 -16.79393719 12.12975972 -17 10 C-17.99 10.66 -18.98 11.32 -20 12 C-23.125 12.1875 -23.125 12.1875 -26 12 C-27.89488952 10.10511048 -27.18019112 7.42860854 -27.23046875 4.91015625 C-27 3 -27 3 -25 1 C-20.65927829 1.37206186 -16.92584885 3.22951915 -13 5 C-13 4.34 -13 3.68 -13 3 C-8.48380573 -0.85528779 -5.73836163 -1.65529662 0 0 Z " fill="#C4F1FD" transform="translate(222,175)"/>
<path d="M0 0 C9.24 0 18.48 0 28 0 C28 1.98 28 3.96 28 6 C21.07 6 14.14 6 7 6 C7 7.98 7 9.96 7 12 C13.6 12 20.2 12 27 12 C26.67 17.61 26.34 23.22 26 29 C17.23400039 32.25594271 11.74848718 31.91616239 3 29 C2.67 26.03 2.34 23.06 2 20 C3.98 20 5.96 20 8 20 C8 21.65 8 23.3 8 25 C12.29 25 16.58 25 21 25 C21 22.36 21 19.72 21 17 C14.73 17 8.46 17 2 17 C1.34 11.39 0.68 5.78 0 0 Z " fill="#EBDFDB" transform="translate(345,335)"/>
<path d="M0 0 C5.64218718 0.55045729 7.57661103 1.90092059 13 5 C13 15.56 13 26.12 13 37 C5 41 5 41 3 41 C3.05542969 40.29875 3.11085938 39.5975 3.16796875 38.875 C3.19013151 35.61264181 2.99778611 33.12012623 2 30 C-1.30660131 26.69853317 -4.9601096 24.32277059 -9 22 C-7.54115197 18.3170066 -5.73132355 16.97924041 -2.4375 14.875 C0.39885299 12.78864419 1.78003922 11.72439005 2.8125 8.32421875 C3.03651746 5.84952586 3.12476261 3.48028061 3 1 C2.01 0.67 1.02 0.34 0 0 Z " fill="#24A7EE" transform="translate(315,435)"/>
<path d="M0 0 C5.61 0 11.22 0 17 0 C17.21341437 7.89633159 16.77999587 15.57607224 16.0625 23.4375 C15.97564941 24.39672363 15.88879883 25.35594727 15.79931641 26.34423828 C15.38904239 30.6570448 14.85269571 34.73652147 14 39 C9.38 40.32 4.76 41.64 0 43 C-0.33 41.02 -0.66 39.04 -1 37 C0.43554025 36.49440092 1.8735202 35.9957251 3.3125 35.5 C4.11300781 35.2215625 4.91351563 34.943125 5.73828125 34.65625 C8 34 8 34 11 34 C10.98839844 33.443125 10.97679687 32.88625 10.96484375 32.3125 C10.95582031 31.549375 10.94679688 30.78625 10.9375 30 C10.92589844 29.2575 10.91429687 28.515 10.90234375 27.75 C11.03017385 24.15030427 11.55323126 20.57414991 12 17 C5.4 17 -1.2 17 -8 17 C-8 15.02 -8 13.04 -8 11 C-1.07 11 5.86 11 13 11 C13 9.02 13 7.04 13 5 C8.71 5 4.42 5 0 5 C0 3.35 0 1.7 0 0 Z " fill="#F0682F" transform="translate(360,330)"/>
<path d="M0 0 C3.22153655 2.14110303 6.25264061 4.50528122 8 8 C8 10.31 8 12.62 8 15 C0.74 15 -6.52 15 -14 15 C-12.78344645 22.52227043 -12.78344645 22.52227043 -9.75 25.5 C-5.85238422 27.62597224 -3.03165799 27.58047371 1.1875 26.375 C3.79621014 24.39597852 4.71414249 21.95747227 6 19 C6.66 19 7.32 19 8 19 C7.71346097 22.3429554 6.99496782 24.00691925 5 26.75 C1.05076793 29.71192405 -2.11531034 30.28429411 -7 30 C-10.96174491 28.75278401 -12.49285003 27.75198098 -14.8125 24.3125 C-17.12706704 17.85607615 -17.81213 12.48012565 -15 6 C-10.78737702 1.34204259 -6.29066357 -0.8468201 0 0 Z " fill="#1A1A1A" transform="translate(169,281)"/>
<path d="M0 0 C5.713817 2.66498846 7.84453069 7.35892729 10.3125 13 C12.09765229 20.78975543 10.9255111 27.06493039 7 34 C5.10927763 36.06134854 3.33058859 37.41096232 1 39 C0 38 0 38 -0.11352539 34.39819336 C-0.11336625 32.79540144 -0.10767063 31.1926044 -0.09765625 29.58984375 C-0.0962413 28.74780899 -0.09482635 27.90577423 -0.09336853 27.03822327 C-0.08775263 24.33794665 -0.07519748 21.63775172 -0.0625 18.9375 C-0.05748705 17.11132932 -0.05292379 15.28515734 -0.04882812 13.45898438 C-0.03777804 8.97262458 -0.02050279 4.48632616 0 0 Z " fill="#499E3B" transform="translate(74,327)"/>
<path d="M0 0 C3.73803748 1.42045424 5.97712076 2.97906793 8.9375 5.6875 C12.65991716 8.4983048 14.43707239 8.59149062 19 8 C21.35369807 7.11935073 21.35369807 7.11935073 23 6 C19.8549715 12.41101963 19.8549715 12.41101963 16.1875 14.9375 C10.89730273 16.70089909 7.51447396 16.7173824 2.4375 14.3125 C0.04019218 12.81619378 -2.02501696 11.13515101 -4.125 9.25 C-6.75301236 6.83936794 -6.75301236 6.83936794 -9.625 6.5 C-12.40330296 7.08490589 -13.89425162 8.12822366 -16 10 C-15.12705425 6.15903871 -14.3297002 4.29830018 -11.375 1.625 C-7.30445372 -0.33489265 -4.42880476 -0.72924094 0 0 Z " fill="#43C0F8" transform="translate(129,414)"/>
<path d="M0 0 C3.1875 1.75 3.1875 1.75 5 4 C5 5.32 5 6.64 5 8 C3.68 8 2.36 8 1 8 C0.34 7.01 -0.32 6.02 -1 5 C-3.20725073 4.63637182 -3.20725073 4.63637182 -5.625 4.8125 C-6.44226563 4.83957031 -7.25953125 4.86664063 -8.1015625 4.89453125 C-9.04128906 4.94673828 -9.04128906 4.94673828 -10 5 C-10 5.99 -10 6.98 -10 8 C-8.51886719 8.29003906 -8.51886719 8.29003906 -7.0078125 8.5859375 C-5.72648437 8.84632813 -4.44515625 9.10671875 -3.125 9.375 C-1.84882812 9.63023437 -0.57265625 9.88546875 0.7421875 10.1484375 C4 11 4 11 6 13 C5.77358491 19.22641509 5.77358491 19.22641509 3.125 21.875 C-1.10842154 24.11622317 -5.28282707 24.79952084 -10 24 C-12.64520572 22.60778647 -13.93026358 21.27671006 -16 19 C-16 17.68 -16 16.36 -16 15 C-14.68 15 -13.36 15 -12 15 C-11.67 15.99 -11.34 16.98 -11 18 C-8.47524538 19.26237731 -6.68799534 19.09856404 -3.875 19.0625 C-2.96492188 19.05347656 -2.05484375 19.04445312 -1.1171875 19.03515625 C-0.41851562 19.02355469 0.28015625 19.01195312 1 19 C0.67 17.68 0.34 16.36 0 15 C-0.91523437 14.80664062 -1.83046875 14.61328125 -2.7734375 14.4140625 C-3.96195313 14.15367187 -5.15046875 13.89328125 -6.375 13.625 C-8.15003906 13.24214844 -8.15003906 13.24214844 -9.9609375 12.8515625 C-13 12 -13 12 -15 10 C-15.375 6.5625 -15.375 6.5625 -15 3 C-10.76524613 -1.26423011 -5.62654736 -0.75741984 0 0 Z " fill="#5FA551" transform="translate(111,215)"/>
<path d="M0 0 C3.85246687 1.38107303 5.71029755 2.68856987 8.5 5.6875 C10.8166164 8.26984397 10.8166164 8.26984397 14.0625 8.4375 C16.82599999 8.0259149 18.63796524 7.45355985 21 6 C19.82191948 9.3529984 18.80593388 11.7552529 16 14 C11.25282008 15.58239331 5.73192059 16.13248574 1.01171875 14.17578125 C-0.625 13.125 -0.625 13.125 -3 11 C-3 10.34 -3 9.68 -3 9 C-7.33174464 6.76849518 -10.28215229 7.02082406 -15 8 C-15.99 8.495 -15.99 8.495 -17 9 C-14.3008318 0.16635863 -8.3919969 -1.10634043 0 0 Z " fill="#3FBFF8" transform="translate(117,430)"/>
<path d="M0 0 C11.81529497 1.25694627 20.88730867 5.59061305 28.5859375 14.8125 C30.38323267 17.59284611 31.50314766 20.49761157 32.75 23.5625 C35.33610265 29.56005721 37.94438926 32.03490716 43.828125 34.75390625 C46.34032381 36.19525773 46.98563589 37.33447655 48 40 C45.03 40.495 45.03 40.495 42 41 C42.763125 41.598125 43.52625 42.19625 44.3125 42.8125 C46.3483575 44.46959332 48.1978279 46.10297674 50 48 C49.505 48.99 49.505 48.99 49 50 C47.34500689 48.93071226 45.70124374 47.84402808 44.0625 46.75 C43.14597656 46.14671875 42.22945313 45.5434375 41.28515625 44.921875 C38.88901781 42.90666113 38.31723076 42.05081496 38 39 C39.98 38.34 41.96 37.68 44 37 C43.38253906 36.83628906 42.76507813 36.67257813 42.12890625 36.50390625 C35.02847459 33.89933391 32.53318137 30.1523709 29.375 23.625 C23.37764144 11.38243681 16.90969134 7.42080256 4.21875 3.06640625 C3.1565625 2.71449219 2.094375 2.36257812 1 2 C1.32613281 2.65226563 1.65226562 3.30453125 1.98828125 3.9765625 C3.32552083 6.65104167 4.66276042 9.32552083 6 12 C6.5465625 12.928125 7.093125 13.85625 7.65625 14.8125 C9.35306112 18.83749383 9.33936031 22.06839747 9.1875 26.375 C9.17396484 27.11105469 9.16042969 27.84710938 9.14648438 28.60546875 C9.11144869 30.40396743 9.05765288 32.20208422 9 34 C9.66 34 10.32 34 11 34 C11.33 31.69 11.66 29.38 12 27 C12.66 27 13.32 27 14 27 C15.65 30.3 17.3 33.6 19 37 C15 35 15 35 14 33 C13.34 33.99 12.68 34.98 12 36 C10.125 35.8125 10.125 35.8125 8 35 C6.06296758 31.28352424 5.93030551 28.67536911 6.3125 24.5625 C6.4850514 18.2330009 4.50873192 14.05716874 1.40161133 8.72094727 C-1.05193293 4.43822853 -1.05193293 4.43822853 -0.71484375 1.59375 C-0.47894531 1.0678125 -0.24304688 0.541875 0 0 Z " fill="#1F7398" transform="translate(309,172)"/>
<path d="M0 0 C4.29 0 8.58 0 13 0 C12.67 5.61 12.34 11.22 12 17 C3.23400039 20.25594271 -2.25151282 19.91616239 -11 17 C-11.33 14.03 -11.66 11.06 -12 8 C-10.02 8 -8.04 8 -6 8 C-6 9.65 -6 11.3 -6 13 C-1.71 13 2.58 13 7 13 C7 10.36 7 7.72 7 5 C4.69 5 2.38 5 0 5 C0 3.35 0 1.7 0 0 Z " fill="#FDFAF9" transform="translate(359,347)"/>
<path d="M0 0 C0.66 0.99 1.32 1.98 2 3 C0.25 4.125 0.25 4.125 -2 5 C-4.25 4.125 -4.25 4.125 -6 3 C-5.80188285 4.93342093 -5.80188285 4.93342093 -5 7 C-3.18323504 8.34205706 -3.18323504 8.34205706 -1 9.375 C2.05183524 11.16760953 2.8443607 11.64425303 4.3125 15 C4 18 4 18 1.9375 20.875 C-1 23 -1 23 -4 23.5 C-7.34891546 22.94184742 -9.34376371 22.10936411 -12 20 C-12 19.01 -12 18.02 -12 17 C-10.125 16.375 -10.125 16.375 -8 16 C-7.34 16.66 -6.68 17.32 -6 18 C-3.89179203 17.6814823 -3.89179203 17.6814823 -2 17 C-2 16.34 -2 15.68 -2 15 C-3.75674121 13.6719936 -3.75674121 13.6719936 -5.9375 12.4375 C-9.94347826 10.05652174 -9.94347826 10.05652174 -11 9 C-11.5794702 2.74172185 -11.5794702 2.74172185 -9.4375 0 C-5.94857191 -1.43135511 -3.60244028 -0.933966 0 0 Z " fill="#EAF3FA" transform="translate(299,105)"/>
<path d="M0 0 C0.50064087 3.45581268 0.66615275 6.55904556 0 10 C-3.01240242 13.8690763 -6.95932 16.30621334 -11 19 C-14.32240324 18.6758631 -15.60776303 18.39223697 -18 16 C-17.50091001 11.16632255 -14.09086672 8.83926664 -10.6875 5.75 C-10.10548828 5.19570313 -9.52347656 4.64140625 -8.92382812 4.0703125 C-8.35470703 3.54695313 -7.78558594 3.02359375 -7.19921875 2.484375 C-6.68190186 2.00709961 -6.16458496 1.52982422 -5.6315918 1.03808594 C-4 0 -4 0 0 0 Z " fill="#0779B8" transform="translate(318,436)"/>
<path d="M0 0 C3.52547033 1.44783176 4.88971759 3.57362705 6.90234375 6.78125 C6.90234375 8.10125 6.90234375 9.42125 6.90234375 10.78125 C0.30234375 10.78125 -6.29765625 10.78125 -13.09765625 10.78125 C-11.89987289 3.59454982 -11.89987289 3.59454982 -7.91015625 0.640625 C-5.12513883 -0.6798574 -2.98688527 -0.59623046 0 0 Z " fill="#F8F8F8" transform="translate(168.09765625,283.21875)"/>
<path d="M0 0 C3.42958438 1.41785848 5.02393304 3.03190342 7.125 6.0625 C9.11074647 9.04627522 9.11074647 9.04627522 12 11 C12.226875 10.484375 12.45375 9.96875 12.6875 9.4375 C14.4975553 6.07596873 16.73996404 3.07088856 19 0 C19.99 0.33 20.98 0.66 22 1 C21.41089844 1.74765625 20.82179687 2.4953125 20.21484375 3.265625 C19.46332031 4.25046875 18.71179688 5.2353125 17.9375 6.25 C16.80634766 7.71179688 16.80634766 7.71179688 15.65234375 9.203125 C13.83045057 11.74557487 13.83045057 11.74557487 14 14 C15.40925842 16.81851684 17.17263911 19.23018548 19.0625 21.75 C19.79597656 22.73484375 20.52945313 23.7196875 21.28515625 24.734375 C21.85105469 25.48203125 22.41695312 26.2296875 23 27 C22.01 27.33 21.02 27.66 20 28 C17.36 24.37 14.72 20.74 12 17 C8.00624614 18.99687693 6.82011507 20.16522971 4.25 23.625 C3.63640625 24.44226563 3.0228125 25.25953125 2.390625 26.1015625 C1.93171875 26.72804688 1.4728125 27.35453125 1 28 C0.34 27.67 -0.32 27.34 -1 27 C1.97 22.71 4.94 18.42 8 14 C6.0703677 10.1407354 3.89255827 7.16520546 1.2421875 3.8046875 C0 2 0 2 0 0 Z " fill="#1F1F1F" transform="translate(180,282)"/>
<path d="M0 0 C5.94 0 11.88 0 18 0 C18 1.32 18 2.64 18 4 C15.69 4 13.38 4 11 4 C11 10.27 11 16.54 11 23 C9.68 23 8.36 23 7 23 C7 16.73 7 10.46 7 4 C4.69 4 2.38 4 0 4 C0 2.68 0 1.36 0 0 Z " fill="#EEF5FB" transform="translate(267,104)"/>
<path d="M0 0 C4.81473095 1.20368274 5.07673794 2.05862438 7.625 6.125 C8.30820313 7.19492188 8.99140625 8.26484375 9.6953125 9.3671875 C10.06172852 9.94823242 10.42814453 10.52927734 10.80566406 11.12792969 C12.98160019 14.53861616 15.24763613 17.88952128 17.5 21.25 C18.36494424 22.54663432 19.2295582 23.84348906 20.09375 25.140625 C20.7228125 26.08421875 21.351875 27.0278125 22 28 C21.34 28.66 20.68 29.32 20 30 C17.91481566 27.12633843 15.8321909 24.25083111 13.75 21.375 C13.16347656 20.56675781 12.57695312 19.75851563 11.97265625 18.92578125 C8.89352866 14.67035773 5.87418661 10.3966518 3 6 C2.67 10.29 2.34 14.58 2 19 C1.34 19 0.68 19 0 19 C0 12.73 0 6.46 0 0 Z " fill="#F7F7F7" transform="translate(117,105)"/>
<path d="M0 0 C0.66 0 1.32 0 2 0 C2.73305995 1.19349431 3.43550171 2.40582091 4.125 3.625 C4.51945312 4.29789063 4.91390625 4.97078125 5.3203125 5.6640625 C6.59867557 10.05751719 4.23905864 13.52512785 2.2734375 17.4296875 C1.64695312 18.56664062 1.02046875 19.70359375 0.375 20.875 C-0.25664062 22.02742188 -0.88828125 23.17984375 -1.5390625 24.3671875 C-2.02117187 25.23601562 -2.50328125 26.10484375 -3 27 C-3.33 27 -3.66 27 -4 27 C-2.47469459 2.47469459 -2.47469459 2.47469459 0 0 Z " fill="#F58B30" transform="translate(271,248)"/>
<path d="M0 0 C0 5.94 0 11.88 0 18 C-4 15.33333333 -8 12.66666667 -12 10 C-10.58426179 6.60812721 -8.95769034 4.90302459 -6 2.75 C-5.29875 2.22921875 -4.5975 1.7084375 -3.875 1.171875 C-2 0 -2 0 0 0 Z " fill="#F3F9FD" transform="translate(318,447)"/>
<path d="M0 0 C3 1 3 1 4.25 2.8125 C5.15660239 5.45675697 4.94312774 6.3962992 4 9 C2.50952148 10.83105469 2.50952148 10.83105469 0.62109375 12.671875 C-0.05244141 13.33574219 -0.72597656 13.99960937 -1.41992188 14.68359375 C-2.48049805 15.70646484 -2.48049805 15.70646484 -3.5625 16.75 C-4.27341797 17.44738281 -4.98433594 18.14476562 -5.71679688 18.86328125 C-7.47130714 20.5824658 -9.23243352 22.29425872 -11 24 C-11.33 23.34 -11.66 22.68 -12 22 C-11.01196289 19.75341797 -11.01196289 19.75341797 -9.47265625 16.9921875 C-8.92802734 16.00605469 -8.38339844 15.01992188 -7.82226562 14.00390625 C-7.24154297 12.97136719 -6.66082031 11.93882812 -6.0625 10.875 C-5.48564453 9.83472656 -4.90878906 8.79445313 -4.31445312 7.72265625 C-2.88339191 5.14438067 -1.44499106 2.57048661 0 0 Z " fill="#F5892C" transform="translate(280,254)"/>
<path d="M0 0 C3.25 -0.3125 3.25 -0.3125 7 0 C9.4375 2.5 9.4375 2.5 11 5 C10.01958581 7.45103548 9.3486182 8.76758786 7.125 10.25 C5 11 5 11 1 11 C-0.20272819 8.59454362 -0.10071472 7.05003047 -0.0625 4.375 C-0.05347656 3.55773437 -0.04445312 2.74046875 -0.03515625 1.8984375 C-0.02355469 1.27195313 -0.01195312 0.64546875 0 0 Z " fill="#F6FCFE" transform="translate(195,206)"/>
<path d="M0 0 C3.05726845 0.26584943 5.33706432 0.57229956 7.9375 2.25 C9 4 9 4 9.0625 6.5 C8 9 8 9 5.0625 10.8125 C2 12 2 12 0 12 C-2.03188359 7.93623282 -2.09890389 5.39561557 -1 1 C-0.67 0.67 -0.34 0.34 0 0 Z " fill="#F6FCFE" transform="translate(222,191)"/>
<path d="M0 0 C1.23076923 6.4 1.23076923 6.4 0.0625 9.4375 C-0.288125 9.953125 -0.63875 10.46875 -1 11 C-8.06533193 8.95890411 -8.06533193 8.95890411 -10 6 C-9.91246972 3.19903113 -9.19432526 2.20126545 -7.25 0.1875 C-4.3995411 -1.31690887 -3.01911587 -0.92250763 0 0 Z " fill="#F6FDFE" transform="translate(195,192)"/>
<path d="M0 0 C3.84177074 0.30329769 6.09427672 1.52475424 9 4 C7.92598892 6.91517292 7.22189824 8.77810176 5 11 C1.9375 11.1875 1.9375 11.1875 -1 11 C-2.89488952 9.10511048 -2.18019112 6.42860854 -2.23046875 3.91015625 C-2 2 -2 2 0 0 Z " fill="#F7FDFE" transform="translate(197,176)"/>
<path d="M0 0 C0.70125 0.268125 1.4025 0.53625 2.125 0.8125 C-1.42294521 9.93578767 -1.42294521 9.93578767 -4.875 12.8125 C-5.535 12.8125 -6.195 12.8125 -6.875 12.8125 C-6.875 12.1525 -6.875 11.4925 -6.875 10.8125 C-8.195 10.1525 -9.515 9.4925 -10.875 8.8125 C-9.09681934 4.01141223 -5.34841722 -0.34880982 0 0 Z " fill="#FAD7C8" transform="translate(235.875,378.1875)"/>
<path d="M0 0 C0 3.3 0 6.6 0 10 C-2.125 10.75 -2.125 10.75 -5 11 C-8.3125 9.0625 -8.3125 9.0625 -11 7 C-8.62480261 1.25993964 -6.21733677 0 0 0 Z " fill="#F8FDFE" transform="translate(221,206)"/>
<path d="M0 0 C1.98 0 3.96 0 6 0 C6 1.65 6 3.3 6 5 C8.64 5.33 11.28 5.66 14 6 C13.01 6.495 13.01 6.495 12 7 C12 8.65 12 10.3 12 12 C4.375 10.125 4.375 10.125 1 9 C0.67 6.03 0.34 3.06 0 0 Z " fill="#EAE1DE" transform="translate(347,355)"/>
<path d="M0 0 C3.3719707 2.13258106 6.46287971 4.30762098 7.69921875 8.203125 C7.84810547 9.09257812 7.84810547 9.09257812 8 10 C5 9 5 9 3.3125 6.5 C0.53571299 3.4980681 -1.05533109 3.05666898 -5.03515625 2.8046875 C-8.37454617 3.13663481 -9.84120412 4.52373414 -12 7 C-12.66 8.98 -13.32 10.96 -14 13 C-7.4 13 -0.8 13 6 13 C6 13.33 6 13.66 6 14 C-0.93 14 -7.86 14 -15 14 C-16 8 -16 8 -13.875 4.75 C-9.62941417 0.68900486 -5.90588253 -0.9449412 0 0 Z " fill="#343434" transform="translate(169,281)"/>
<path d="M0 0 C0 3.3 0 6.6 0 10 C-3.25 10.375 -3.25 10.375 -7 10 C-9.4375 7 -9.4375 7 -11 4 C-7.26280719 0.48264206 -5.13496308 -0.47767098 0 0 Z " fill="#F9FDFE" transform="translate(221,177)"/>
<path d="M0 0 C4.62 0 9.24 0 14 0 C14 1.65 14 3.3 14 5 C9.38 5 4.76 5 0 5 C0 3.35 0 1.7 0 0 Z " fill="#FDFDFD" transform="translate(359,336)"/>
<path d="M0 0 C2.62187494 1.04874998 3.79371361 1.64931313 5.25 4.125 C5.4975 4.74375 5.745 5.3625 6 6 C0.70769231 10.06153846 0.70769231 10.06153846 -2.875 9.75 C-3.57625 9.5025 -4.2775 9.255 -5 9 C-4.5206753 4.68607774 -3.2542015 2.83430453 0 0 Z " fill="#0B72B1" transform="translate(292,456)"/>
<path d="M0 0 C5.28776943 0.33048559 9.24100622 3.48352195 13 7 C13 7.66 13 8.32 13 9 C11.02 9.33 9.04 9.66 7 10 C7.763125 10.598125 8.52625 11.19625 9.3125 11.8125 C11.3483575 13.46959332 13.1978279 15.10297674 15 17 C14.67 17.66 14.34 18.32 14 19 C12.34500689 17.93071226 10.70124374 16.84402808 9.0625 15.75 C8.14597656 15.14671875 7.22945313 14.5434375 6.28515625 13.921875 C3.88901781 11.90666113 3.31723076 11.05081496 3 8 C4.98 7.34 6.96 6.68 9 6 C4.545 4.02 4.545 4.02 0 2 C0 1.34 0 0.68 0 0 Z " fill="#3882A4" transform="translate(344,203)"/>
<path d="M0 0 C3.125 0.375 3.125 0.375 6 1 C6.625 3.875 6.625 3.875 7 7 C5 9 5 9 2.5 9.25 C0 9 0 9 -2 7 C-2.25 4.5 -2.25 4.5 -2 2 C-1.34 1.34 -0.68 0.68 0 0 Z " fill="#68DCFA" transform="translate(206,192)"/>
<path d="M0 0 C0 0.66 0 1.32 0 2 C1.65 2 3.3 2 5 2 C5 2.33 5 2.66 5 3 C4.0925 3 3.185 3 2.25 3 C-1.00189705 3.64706965 -1.00189705 3.64706965 -2.25390625 5.70703125 C-3.94471921 9.06993968 -5.16639187 12.32717208 -6 16 C-9 14 -9 14 -9.51171875 12.0546875 C-9.67447917 10.03645833 -9.83723958 8.01822917 -10 6 C-8.02 6.99 -8.02 6.99 -6 8 C-5.67 6.68 -5.34 5.36 -5 4 C-5.99 4 -6.98 4 -8 4 C-8 3.34 -8 2.68 -8 2 C-2.25 0 -2.25 0 0 0 Z " fill="#6ADCFA" transform="translate(205,185)"/>
<path d="M0 0 C6.27 0 12.54 0 19 0 C19 2.64 19 5.28 19 8 C17.02 8.33 15.04 8.66 13 9 C13 6.36 13 3.72 13 1 C8.71 1 4.42 1 0 1 C0 0.67 0 0.34 0 0 Z " fill="#EF713F" transform="translate(347,352)"/>
<path d="M0 0 C2.49505962 2.49505962 2.35948376 3.67328888 2.625 7.125 C2.69976562 8.03507813 2.77453125 8.94515625 2.8515625 9.8828125 C2.92503906 10.93082031 2.92503906 10.93082031 3 12 C3.66 12 4.32 12 5 12 C5.33 9.69 5.66 7.38 6 5 C6.66 5 7.32 5 8 5 C9.65 8.3 11.3 11.6 13 15 C9 13 9 13 8 11 C7.01 12.485 7.01 12.485 6 14 C4.125 13.8125 4.125 13.8125 2 13 C-0.53124675 8.82344286 -0.16019214 4.72566806 0 0 Z " fill="#2F7C9F" transform="translate(315,194)"/>
<path d="M0 0 C1.98 0.99 3.96 1.98 6 3 C6 6.96 6 10.92 6 15 C5.01 15.33 4.02 15.66 3 16 C3 12.37 3 8.74 3 5 C1.35 4.67 -0.3 4.34 -2 4 C-1.34 2.68 -0.68 1.36 0 0 Z " fill="#8BE4FB" transform="translate(218,200)"/>
<path d="M0 0 C3.67049854 0.59933417 3.93815729 0.91716762 6.359375 4.16015625 C7.16846555 5.45337476 7.96496703 6.7545379 8.75 8.0625 C9.16121094 8.72572266 9.57242188 9.38894531 9.99609375 10.07226562 C11.00824336 11.70818186 12.00557507 13.35324932 13 15 C12.34 15.66 11.68 16.32 11 17 C9.15895764 14.54735411 7.32852207 12.08699041 5.5 9.625 C4.71302734 8.57699219 4.71302734 8.57699219 3.91015625 7.5078125 C3.41386719 6.8375 2.91757813 6.1671875 2.40625 5.4765625 C1.94541016 4.85861816 1.48457031 4.24067383 1.00976562 3.60400391 C0 2 0 2 0 0 Z " fill="#DFDFDF" transform="translate(126,118)"/>
<path d="M0 0 C0.99 0 1.98 0 3 0 C3 5.61 3 11.22 3 17 C0 14 0 14 -0.29296875 10.64453125 C-0.25816406 9.37996094 -0.22335938 8.11539063 -0.1875 6.8125 C-0.16042969 5.54019531 -0.13335937 4.26789063 -0.10546875 2.95703125 C-0.07066406 1.98121094 -0.03585938 1.00539063 0 0 Z " fill="#D9D9D9" transform="translate(132,104)"/>
<path d="M0 0 C2.5 0.125 2.5 0.125 3.5 1.125 C3.54063832 2.79117115 3.542721 4.45888095 3.5 6.125 C1.5085944 6.50633299 -0.49279077 6.83825582 -2.5 7.125 C-3.5 6.125 -3.5 6.125 -3.625 3.625 C-3.45661291 0.25725827 -3.36774173 0.16838709 0 0 Z " fill="#FCEFE9" transform="translate(240.5,371.875)"/>
<path d="M0 0 C0.66 0.33 1.32 0.66 2 1 C2 1.66 2 2.32 2 3 C2.99 3 3.98 3 5 3 C4.67 4.32 4.34 5.64 4 7 C2.56208484 6.85831863 1.1246763 6.71148957 -0.3125 6.5625 C-1.11300781 6.48128906 -1.91351563 6.40007812 -2.73828125 6.31640625 C-5 6 -5 6 -8 5 C-5.56159764 2.56159764 -3.14759102 1.37707107 0 0 Z " fill="#91E5FB" transform="translate(195,186)"/>
<path d="M0 0 C0.70125 0.12375 1.4025 0.2475 2.125 0.375 C0.95529778 3.88410665 0.27451072 4.15674698 -2.8125 5.9375 C-5.18037576 7.31697027 -6.92471701 8.42471701 -8.875 10.375 C-8.875 6.375 -8.875 6.375 -7.73828125 4.671875 C-3.51413098 0.45836491 -3.51413098 0.45836491 0 0 Z " fill="#FCF0EB" transform="translate(226.875,390.625)"/>
<path d="M0 0 C1.32 0.33 2.64 0.66 4 1 C4.33 2.32 4.66 3.64 5 5 C4.01 5 3.02 5 2 5 C2 5.66 2 6.32 2 7 C0.68 7.33 -0.64 7.66 -2 8 C-2 7.34 -2 6.68 -2 6 C-2.66 5.67 -3.32 5.34 -4 5 C-3.01 4.67 -2.02 4.34 -1 4 C-0.26676204 1.98491642 -0.26676204 1.98491642 0 0 Z " fill="#90E5FB" transform="translate(195,199)"/>
<path d="M0 0 C2.64 0 5.28 0 8 0 C7.67 1.65 7.34 3.3 7 5 C4.69 5 2.38 5 0 5 C0 3.35 0 1.7 0 0 Z " fill="#E45028" transform="translate(352,341)"/>
<path d="M0 0 C0.99 0.33 1.98 0.66 3 1 C1.71053695 2.79325326 0.41835648 4.58455278 -0.875 6.375 C-1.95394531 7.87160156 -1.95394531 7.87160156 -3.0546875 9.3984375 C-5 12 -5 12 -7 14 C-7 13.34 -7 12.68 -7 12 C-7.66 11.67 -8.32 11.34 -9 11 C-8.34 11 -7.68 11 -7 11 C-6.6596875 10.2265625 -6.6596875 10.2265625 -6.3125 9.4375 C-4.5024447 6.07596873 -2.26003596 3.07088856 0 0 Z " fill="#262626" transform="translate(199,282)"/>
<path d="M0 0 C5.59282842 1.36410449 8.91193811 4.15383526 13 8 C12.34 8.66 11.68 9.32 11 10 C9.6696875 8.8553125 9.6696875 8.8553125 8.3125 7.6875 C6.2825411 5.98059869 4.43362376 4.66756177 2.125 3.3125 C1.42375 2.879375 0.7225 2.44625 0 2 C0 1.34 0 0.68 0 0 Z " fill="#2B7A9D" transform="translate(321,175)"/>
<path d="M0 0 C3.83953399 1.27984466 5.65316744 3.81501296 8 7 C7.67 7.66 7.34 8.32 7 9 C6.2575 8.236875 5.515 7.47375 4.75 6.6875 C2.5736677 4.5606298 0.47832204 2.7440044 -2 1 C-1.34 0.67 -0.68 0.34 0 0 Z " fill="#282828" transform="translate(169,282)"/>
<path d="M0 0 C2.91517292 1.07401108 4.77810176 1.77810176 7 4 C9.57061311 4.64767793 9.57061311 4.64767793 12 5 C8.77208445 7.1519437 7.71599191 7.20086443 4 7 C2.02 3.535 2.02 3.535 0 0 Z " fill="#BCBBBB" transform="translate(196,36)"/>
<path d="M0 0 C0 0.99 0 1.98 0 3 C-2.64 3.66 -5.28 4.32 -8 5 C-8 4.01 -8 3.02 -8 2 C-4.77208445 -0.1519437 -3.71599191 -0.20086443 0 0 Z " fill="#7AE0FB" transform="translate(220,174)"/>
<path d="M0 0 C-1.5830577 4.2742558 -4.50568404 6.26531794 -8 9 C-8.66 8.67 -9.32 8.34 -10 8 C-8.71451591 6.66070495 -7.42141845 5.32871357 -6.125 4 C-5.04605469 2.88625 -5.04605469 2.88625 -3.9453125 1.75 C-2 0 -2 0 0 0 Z " fill="#FDF4F0" transform="translate(238,379)"/>
<path d="M0 0 C0.66 0 1.32 0 2 0 C1.5206753 4.31392226 0.2542015 6.16569547 -3 9 C-3.66 8.34 -4.32 7.68 -5 7 C-4.54625 6.5875 -4.0925 6.175 -3.625 5.75 C-1.94049626 3.93591905 -1.00734029 2.24714373 0 0 Z " fill="#343434" transform="translate(175,300)"/>
<path d="M0 0 C2.40072955 2.88087546 4.47291037 5.56404834 6 9 C5.01 9 4.02 9 3 9 C0.72162458 6.72162458 0.03353711 5.49187763 -0.1875 2.25 C-0.125625 1.5075 -0.06375 0.765 0 0 Z " fill="#D5D5D5" transform="translate(133,125)"/>
<path d="M0 0 C0.66 0.33 1.32 0.66 2 1 C2 2.65 2 4.3 2 6 C1.01 6.33 0.02 6.66 -1 7 C-1.66 6.01 -2.32 5.02 -3 4 C-2.01 2.68 -1.02 1.36 0 0 Z " fill="#F9C2AA" transform="translate(242,372)"/>
<path d="M0 0 C3.87132028 0.57352893 6.08172796 2.48704352 9 5 C8.67 5.66 8.34 6.32 8 7 C6.66144944 6.21718695 5.32926356 5.42348123 4 4.625 C3.2575 4.18414062 2.515 3.74328125 1.75 3.2890625 C1.1725 2.86367187 0.595 2.43828125 0 2 C0 1.34 0 0.68 0 0 Z " fill="#468BAA" transform="translate(350,215)"/>
<path d="M0 0 C2.64 0 5.28 0 8 0 C7.38125 0.45375 6.7625 0.9075 6.125 1.375 C3.94080167 2.97108919 3.94080167 2.97108919 2 5 C1.34 4.34 0.68 3.68 0 3 C0 2.01 0 1.02 0 0 Z " fill="#1E7298" transform="translate(347,211)"/>
</svg>
